<svg width="18" height="18" viewBox="0 0 18 18" fill="none" xmlns="http://www.w3.org/2000/svg">
<path d="M7.49199 10.511C5.1772 8.18749 4.5518 4.81072 5.61498 1.91762C5.71816 1.63681 5.4002 1.38711 5.15124 1.55352C4.68689 1.86389 4.24735 2.22728 3.84121 2.64403C0.724423 5.84211 0.764325 10.9842 3.92887 14.1352C7.10328 17.296 12.2293 17.2881 15.3939 14.1115C15.783 13.7208 16.1243 13.3004 16.4178 12.8574C16.5831 12.6079 16.3324 12.2917 16.0515 12.3957C13.1696 13.4622 9.80637 12.8342 7.49199 10.511V10.511Z" fill="#FFD900"/>
<path d="M16.0515 12.3956C15.4645 12.6128 14.8576 12.7596 14.2436 12.8363C11.0602 15.5734 6.26748 15.4371 3.24453 12.4271C2.66566 11.8507 2.19184 11.2075 1.82227 10.522C2.1861 11.8483 2.88861 13.0993 3.92887 14.1351C7.10329 17.2959 12.2293 17.288 15.3939 14.1114C15.783 13.7207 16.1243 13.3003 16.4178 12.8573C16.5831 12.6078 16.3324 12.2916 16.0515 12.3956V12.3956Z" fill="#FFBB00"/>
</svg>
