<svg width="18" height="18" viewBox="0 0 18 18" fill="none" xmlns="http://www.w3.org/2000/svg">
<path d="M8.3999 1.8C8.3999 2.13135 8.66853 2.40001 8.99992 2.40001C9.33127 2.40001 9.59993 2.13139 9.59993 1.8V0.600012C9.59993 0.268624 9.33127 0 8.99992 0C8.66853 0 8.3999 0.268624 8.3999 0.600012V1.8Z" fill="#FFD900"/>
<path d="M8.3999 17.4001C8.3999 17.7315 8.66853 18.0001 8.99992 18.0001C9.33127 18.0001 9.59993 17.7315 9.59993 17.4001V16.2001C9.59993 15.8688 9.33131 15.6001 8.99992 15.6001C8.66853 15.6001 8.3999 15.8687 8.3999 16.2001V17.4001Z" fill="#FFD900"/>
<path d="M16.2001 8.3999C15.8688 8.3999 15.6001 8.66853 15.6001 8.99992C15.6001 9.33131 15.8687 9.59993 16.2001 9.59993H17.4001C17.7315 9.59993 18.0001 9.33131 18.0001 8.99992C18.0001 8.66853 17.7315 8.3999 17.4001 8.3999H16.2001Z" fill="#FFD900"/>
<path d="M0.600012 8.3999C0.268624 8.3999 0 8.66853 0 8.99992C0 9.33131 0.268624 9.59993 0.600012 9.59993H1.8C2.13135 9.59993 2.40001 9.33131 2.40001 8.99992C2.40001 8.66853 2.13139 8.3999 1.8 8.3999H0.600012Z" fill="#FFD900"/>
<path d="M9.0001 14.4001C11.9824 14.4001 14.4001 11.9824 14.4001 9.0001C14.4001 6.01776 11.9824 3.6001 9.0001 3.6001C6.01776 3.6001 3.6001 6.01776 3.6001 9.0001C3.6001 11.9824 6.01776 14.4001 9.0001 14.4001Z" fill="#FFD900"/>
<path d="M13.667 3.48424C13.4326 3.71857 13.4326 4.09845 13.667 4.33278C13.9013 4.56711 14.2812 4.56711 14.5155 4.33278L15.364 3.48424C15.5983 3.24992 15.5983 2.87003 15.364 2.63571C15.1297 2.40138 14.7498 2.40138 14.5155 2.63571L13.667 3.48424Z" fill="#FFD900"/>
<path d="M2.63571 14.5155C2.40138 14.7498 2.40138 15.1297 2.63571 15.364C2.87003 15.5983 3.24992 15.5983 3.48424 15.364L4.33278 14.5155C4.56711 14.2812 4.56711 13.9013 4.33278 13.667C4.09845 13.4326 3.71857 13.4326 3.48424 13.667L2.63571 14.5155Z" fill="#FFD900"/>
<path d="M14.5155 13.667C14.2812 13.4326 13.9013 13.4326 13.667 13.667C13.4326 13.9013 13.4326 14.2812 13.667 14.5155L14.5155 15.364C14.7498 15.5983 15.1297 15.5983 15.364 15.364C15.5983 15.1297 15.5983 14.7498 15.364 14.5155L14.5155 13.667Z" fill="#FFD900"/>
<path d="M3.48424 2.63571C3.24992 2.40138 2.87003 2.40138 2.63571 2.63571C2.40138 2.87003 2.40138 3.24992 2.63571 3.48424L3.48424 4.33278C3.71857 4.56711 4.09845 4.56711 4.33278 4.33278C4.56711 4.09845 4.56711 3.71857 4.33278 3.48424L3.48424 2.63571Z" fill="#FFD900"/>
<path d="M9 3.6001C8.85983 3.6001 8.72094 3.60546 8.5835 3.61592C11.3712 3.82856 13.567 6.15791 13.567 9.0001C13.567 11.8423 11.3712 14.1716 8.5835 14.3843C8.72094 14.3947 8.85983 14.4001 9 14.4001C11.9823 14.4001 14.4 11.9825 14.4 9.00013C14.4 6.01778 11.9823 3.6001 9 3.6001V3.6001Z" fill="#FFBB00"/>
<path d="M1.79979 8.3999H0.966797C1.29815 8.3999 1.56681 8.66853 1.56681 8.99992C1.56681 9.33127 1.29819 9.59993 0.966797 9.59993H1.79979C2.13115 9.59993 2.39981 9.33131 2.39981 8.99992C2.39981 8.66856 2.13115 8.3999 1.79979 8.3999V8.3999Z" fill="#FFD900"/>
<path d="M17.3999 8.3999H16.5669C16.8983 8.3999 17.1669 8.66853 17.1669 8.99992C17.1669 9.33127 16.8983 9.59993 16.5669 9.59993H17.3999C17.7313 9.59993 17.9999 9.33131 17.9999 8.99992C17.9999 8.66856 17.7313 8.3999 17.3999 8.3999Z" fill="#FFD900"/>
<path d="M9 0C8.83807 0 8.69143 0.0644306 8.5835 0.168664C8.69646 0.277787 8.76701 0.430551 8.76701 0.600012V1.8C8.76701 1.96946 8.69646 2.12223 8.5835 2.23131C8.69143 2.33555 8.83807 2.39998 9 2.39998C9.33136 2.39998 9.60002 2.13135 9.60002 1.79996V0.600012C9.60002 0.268624 9.33136 0 9 0V0Z" fill="#FFD900"/>
<path d="M9 15.6001C8.83807 15.6001 8.69143 15.6645 8.5835 15.7688C8.69646 15.8779 8.76701 16.0306 8.76701 16.2001V17.4001C8.76701 17.5695 8.69646 17.7223 8.5835 17.8314C8.69143 17.9356 8.83807 18 9 18C9.33136 18 9.60002 17.7314 9.60002 17.4V16.2001C9.60002 15.8687 9.33136 15.6001 9 15.6001V15.6001Z" fill="#FFD900"/>
<path d="M15.3636 2.63599C15.1318 2.40416 14.7577 2.4021 14.5229 2.62896C14.5254 2.63142 14.5281 2.63349 14.5306 2.63599C14.7649 2.87031 14.7649 3.2502 14.5306 3.48452L13.6821 4.33305C13.6796 4.33555 13.6768 4.33762 13.6743 4.34008C13.9092 4.56694 14.2833 4.56488 14.5151 4.33305L15.3636 3.48452C15.5979 3.2502 15.5979 2.87031 15.3636 2.63599Z" fill="#FFD900"/>
<path d="M15.3636 14.5153L14.5151 13.6668C14.2832 13.4349 13.9092 13.4329 13.6743 13.6597C13.6769 13.6622 13.6796 13.6643 13.6821 13.6668L14.5306 14.5153C14.7649 14.7496 14.7649 15.1295 14.5306 15.3638C14.5281 15.3663 14.5254 15.3684 14.5229 15.3709C14.7577 15.5978 15.1318 15.5957 15.3636 15.3638C15.5979 15.1295 15.5979 14.7496 15.3636 14.5153Z" fill="#FFD900"/>
<path d="M4.3329 3.4845L3.48437 2.63597C3.25283 2.40443 2.87944 2.40212 2.64453 2.62815C2.64736 2.63086 2.65043 2.63318 2.65319 2.63597L3.50172 3.4845C3.73604 3.71883 3.73604 4.09871 3.50172 4.33303C3.49893 4.33582 3.49589 4.33814 3.49306 4.34086C3.72797 4.56689 4.1014 4.56453 4.3329 4.33303C4.56719 4.09871 4.56719 3.71879 4.3329 3.4845Z" fill="#FFD900"/>
<path d="M4.3329 13.6667C4.10137 13.4352 3.72797 13.4329 3.49306 13.6589C3.49589 13.6616 3.49893 13.6639 3.50172 13.6667C3.73604 13.9011 3.73604 14.2809 3.50172 14.5153L2.65319 15.3638C2.6504 15.3666 2.64736 15.3689 2.64453 15.3716C2.87944 15.5977 3.25287 15.5953 3.48437 15.3638L4.3329 14.5153C4.56719 14.2809 4.56719 13.9011 4.3329 13.6667Z" fill="#FFD900"/>
</svg>
